<svg width="1133" height="247" viewBox="0 0 1133 247" fill="none" xmlns="http://www.w3.org/2000/svg">
<path d="M619.489 97.9998H592V243.299H619.489V186.75H672.896V243.299H704.312V97.9998H672.896V151.407H619.489V97.9998Z" stroke="black" stroke-width="5"/>
<path d="M811.912 97.9998H720.02V243.299H807.985V211.098H750.651V186.75H807.985V157.69L750.651 158.476V125.489H811.912V97.9998Z" stroke="black" stroke-width="5"/>
<path d="M919.512 97.9998H827.62V243.299H919.512V211.098H857.466V186.75H912.444V158.476H857.466V125.489H919.512V97.9998Z" stroke="black" stroke-width="5"/>
<path d="M965.066 97.9998H932.864V243.299H1022.4V211.098H965.066V97.9998Z" stroke="black" stroke-width="5"/>
<path d="M1128.53 123.568L1107.11 145.261C1105.79 138.207 1079.38 114.37 1069.13 133.691C1058.88 153.012 1141.94 156.92 1128.53 207.447C1120.64 230.46 1111.1 238.628 1084.22 244.085C1058.34 242.379 1047.47 235.32 1032.61 215.161L1054.52 194.432C1069.46 216.518 1082.72 218.698 1096.88 207.447C1111.95 179.174 1034.46 177.547 1038.94 137.548C1043.42 97.5482 1080.81 98.018 1080.81 98.018C1100.78 97.6552 1111.3 102.636 1128.53 123.568Z" stroke="black" stroke-width="5"/>
<path d="M991.19 1.89624V96H970.185L934.637 35.1816V96H913.567V1.89624H934.637L970.249 62.7147V1.89624H991.19Z" fill="black"/>
<path d="M831.966 1.89624H868.095C875.291 1.89624 881.517 2.97344 886.773 5.12783C892.073 7.28222 896.145 10.4707 898.989 14.6933C901.833 18.9159 903.255 24.1295 903.255 30.3342C903.255 35.5047 902.414 39.8997 900.734 43.5191C899.054 47.1384 896.684 50.133 893.624 52.5029C890.608 54.8727 887.075 56.7901 883.025 58.2551L876.174 62.0037H845.409L845.28 45.6519H868.16C871.305 45.6519 873.912 45.0918 875.98 43.9715C878.048 42.8512 879.599 41.2785 880.633 39.2534C881.711 37.1851 882.249 34.7722 882.249 32.0146C882.249 29.1708 881.711 26.7148 880.633 24.6466C879.556 22.5784 877.962 21.0057 875.851 19.9285C873.783 18.8082 871.197 18.2481 868.095 18.2481H853.036V96H831.966V1.89624ZM884.059 96L862.924 54.1833L885.158 54.1187L906.615 95.0305V96H884.059Z" fill="black"/>
<path d="M825.596 79.7128V96H775.506V79.7128H825.596ZM782.68 1.89624V96H761.61V1.89624H782.68ZM819.133 39.7704V55.5406H775.506V39.7704H819.133ZM825.66 1.89624V18.2481H775.506V1.89624H825.66Z" fill="black"/>
<path d="M709.546 96H688.864L688.993 79.7128H709.546C714.243 79.7128 718.207 78.6356 721.438 76.4812C724.67 74.2837 727.126 71.0522 728.806 66.7865C730.487 62.4777 731.327 57.2425 731.327 51.081V46.7506C731.327 42.0972 730.853 38.0038 729.905 34.4706C728.957 30.8943 727.557 27.8997 725.704 25.4868C723.851 23.0739 721.546 21.2642 718.789 20.0577C716.074 18.8513 712.95 18.2481 709.417 18.2481H688.476V1.89624H709.417C715.794 1.89624 721.611 2.97344 726.867 5.12783C732.167 7.28222 736.735 10.363 740.569 14.3702C744.447 18.3773 747.442 23.117 749.553 28.5891C751.665 34.0613 752.72 40.1582 752.72 46.8799V51.081C752.72 57.7596 751.665 63.8565 749.553 69.3717C747.442 74.8439 744.447 79.5835 740.569 83.5907C736.735 87.5548 732.189 90.614 726.932 92.7684C721.675 94.9228 715.88 96 709.546 96ZM700.821 1.89624V96H679.751V1.89624H700.821Z" fill="black"/>
<path d="M670.796 46.8798V51.0809C670.796 58.2335 669.805 64.6535 667.823 70.3411C665.884 76.0287 663.104 80.8761 659.485 84.8833C655.909 88.8904 651.643 91.9712 646.688 94.1256C641.776 96.2369 636.325 97.2925 630.336 97.2925C624.347 97.2925 618.875 96.2369 613.92 94.1256C608.965 91.9712 604.656 88.8904 600.993 84.8833C597.374 80.8761 594.573 76.0287 592.591 70.3411C590.609 64.6535 589.618 58.2335 589.618 51.0809V46.8798C589.618 39.7272 590.609 33.3072 592.591 27.6196C594.573 21.8889 597.352 17.02 600.929 13.0128C604.548 9.00564 608.835 5.9464 613.79 3.8351C618.746 1.68071 624.218 0.603516 630.207 0.603516C636.196 0.603516 641.668 1.68071 646.623 3.8351C651.578 5.9464 655.844 9.00564 659.42 13.0128C663.04 17.02 665.84 21.8889 667.823 27.6196C669.805 33.3072 670.796 39.7272 670.796 46.8798ZM649.532 51.0809V46.7505C649.532 41.9678 649.101 37.7452 648.239 34.0827C647.377 30.3772 646.128 27.2749 644.49 24.7758C642.853 22.2767 640.828 20.4024 638.415 19.1528C636.002 17.8602 633.266 17.2139 630.207 17.2139C627.018 17.2139 624.239 17.8602 621.869 19.1528C619.5 20.4024 617.496 22.2767 615.859 24.7758C614.264 27.2749 613.036 30.3772 612.175 34.0827C611.356 37.7452 610.947 41.9678 610.947 46.7505V51.0809C610.947 55.8205 611.356 60.0431 612.175 63.7487C613.036 67.4111 614.286 70.5135 615.923 73.0556C617.561 75.5978 619.564 77.5152 621.934 78.8079C624.347 80.1005 627.148 80.7468 630.336 80.7468C633.395 80.7468 636.11 80.1005 638.48 78.8079C640.893 77.5152 642.918 75.5978 644.555 73.0556C646.192 70.5135 647.42 67.4111 648.239 63.7487C649.101 60.0431 649.532 55.8205 649.532 51.0809Z" fill="black"/>
<path d="M490.436 1.89624H507.887L530.508 69.1778L553.064 1.89624H570.515L537.553 96H523.398L490.436 1.89624ZM480.354 1.89624H498.127L501.423 71.6339V96H480.354V1.89624ZM562.824 1.89624H580.662V96H559.527V71.6339L562.824 1.89624Z" fill="black"/>
<path d="M403.887 1.89624V96H382.817V1.89624H403.887ZM440.921 41.5801V57.8673H398.006V41.5801H440.921ZM445.058 1.89624V18.2481H398.006V1.89624H445.058Z" fill="black"/>
<path d="M373.862 46.8798V51.0809C373.862 58.2335 372.871 64.6535 370.889 70.3411C368.95 76.0287 366.171 80.8761 362.551 84.8833C358.975 88.8904 354.709 91.9712 349.754 94.1256C344.842 96.2369 339.392 97.2925 333.403 97.2925C327.413 97.2925 321.941 96.2369 316.986 94.1256C312.031 91.9712 307.722 88.8904 304.06 84.8833C300.44 80.8761 297.64 76.0287 295.658 70.3411C293.676 64.6535 292.685 58.2335 292.685 51.0809V46.8798C292.685 39.7272 293.676 33.3072 295.658 27.6196C297.64 21.8889 300.419 17.02 303.995 13.0128C307.614 9.00564 311.902 5.9464 316.857 3.8351C321.812 1.68071 327.284 0.603516 333.273 0.603516C339.262 0.603516 344.735 1.68071 349.69 3.8351C354.645 5.9464 358.911 9.00564 362.487 13.0128C366.106 17.02 368.907 21.8889 370.889 27.6196C372.871 33.3072 373.862 39.7272 373.862 46.8798ZM352.598 51.0809V46.7505C352.598 41.9678 352.167 37.7452 351.306 34.0827C350.444 30.3772 349.194 27.2749 347.557 24.7758C345.92 22.2767 343.894 20.4024 341.482 19.1528C339.069 17.8602 336.333 17.2139 333.273 17.2139C330.085 17.2139 327.306 17.8602 324.936 19.1528C322.566 20.4024 320.562 22.2767 318.925 24.7758C317.331 27.2749 316.103 30.3772 315.241 34.0827C314.422 37.7452 314.013 41.9678 314.013 46.7505V51.0809C314.013 55.8205 314.422 60.0431 315.241 63.7487C316.103 67.4111 317.352 70.5135 318.99 73.0556C320.627 75.5978 322.631 77.5152 325 78.8079C327.413 80.1005 330.214 80.7468 333.403 80.7468C336.462 80.7468 339.176 80.1005 341.546 78.8079C343.959 77.5152 345.984 75.5978 347.622 73.0556C349.259 70.5135 350.487 67.4111 351.306 63.7487C352.167 60.0431 352.598 55.8205 352.598 51.0809Z" fill="black"/>
<path d="M260.037 79.7128V96H209.948V79.7128H260.037ZM217.122 1.89624V96H196.052V1.89624H217.122ZM253.574 39.7704V55.5406H209.948V39.7704H253.574ZM260.102 1.89624V18.2481H209.948V1.89624H260.102Z" fill="black"/>
<path d="M166.608 71.1813C166.608 69.5871 166.371 68.1652 165.897 66.9156C165.423 65.623 164.561 64.4381 163.312 63.3609C162.062 62.2837 160.296 61.2065 158.012 60.1293C155.728 59.009 152.734 57.8672 149.028 56.7038C144.806 55.325 140.777 53.7739 136.942 52.0504C133.15 50.2838 129.768 48.2371 126.795 45.9103C123.822 43.5836 121.474 40.8691 119.75 37.7667C118.07 34.6644 117.23 31.045 117.23 26.9086C117.23 22.9014 118.113 19.2821 119.879 16.0505C121.646 12.8189 124.124 10.0613 127.312 7.77763C130.501 5.45089 134.249 3.68429 138.558 2.47783C142.867 1.22829 147.606 0.603516 152.777 0.603516C159.671 0.603516 165.725 1.83152 170.938 4.28752C176.195 6.70044 180.289 10.1044 183.219 14.4993C186.148 18.8512 187.613 23.914 187.613 29.6878H166.673C166.673 27.1456 166.134 24.905 165.057 22.9661C164.023 20.984 162.429 19.4329 160.274 18.3126C158.163 17.1923 155.513 16.6322 152.325 16.6322C149.222 16.6322 146.615 17.1061 144.504 18.0541C142.436 18.9589 140.863 20.2085 139.786 21.8027C138.752 23.397 138.235 25.142 138.235 27.0379C138.235 28.546 138.623 29.9248 139.398 31.1743C140.217 32.3808 141.38 33.5226 142.888 34.5998C144.439 35.6339 146.335 36.6249 148.576 37.5728C150.816 38.5208 153.38 39.4256 156.267 40.2874C161.308 41.8816 165.768 43.6482 169.646 45.5872C173.567 47.5261 176.863 49.7236 179.535 52.1796C182.206 54.6356 184.21 57.4148 185.545 60.5171C186.924 63.6194 187.613 67.1311 187.613 71.0521C187.613 75.2316 186.795 78.9371 185.157 82.1687C183.563 85.4003 181.236 88.1579 178.177 90.4416C175.161 92.6821 171.542 94.3841 167.319 95.5475C163.097 96.7109 158.378 97.2925 153.165 97.2925C148.425 97.2925 143.75 96.6893 139.14 95.4828C134.529 94.2333 130.35 92.3374 126.601 89.7953C122.896 87.2531 119.923 84.0215 117.682 80.1005C115.484 76.1364 114.386 71.4399 114.386 66.0108H135.456C135.456 68.8546 135.865 71.2675 136.684 73.2495C137.502 75.1885 138.666 76.7612 140.174 77.9677C141.725 79.1741 143.599 80.0359 145.797 80.5529C147.994 81.07 150.45 81.3285 153.165 81.3285C156.31 81.3285 158.852 80.8976 160.791 80.0359C162.773 79.131 164.238 77.903 165.186 76.3519C166.134 74.8007 166.608 73.0772 166.608 71.1813Z" fill="black"/>
<path d="M104.785 1.89624V96H83.7793V1.89624H104.785Z" fill="black"/>
<path d="M0.755859 1.89624H36.885C44.0806 1.89624 50.3068 2.97344 55.5635 5.12783C60.8633 7.28222 64.9351 10.4707 67.7789 14.6933C70.6227 18.9159 72.0446 24.1295 72.0446 30.3342C72.0446 35.5047 71.2044 39.8997 69.524 43.5191C67.8436 47.1384 65.4737 50.133 62.4145 52.5029C59.3984 54.8727 55.8652 56.7901 51.8149 58.2551L44.9639 62.0037H14.1993L14.07 45.6519H36.9496C40.095 45.6519 42.7018 45.0918 44.7701 43.9715C46.8383 42.8512 48.3894 41.2785 49.4235 39.2534C50.5007 37.1851 51.0393 34.7722 51.0393 32.0146C51.0393 29.1708 50.5007 26.7148 49.4235 24.6466C48.3463 22.5784 46.7521 21.0057 44.6408 19.9285C42.5726 18.8082 39.9873 18.2481 36.885 18.2481H21.8258V96H0.755859V1.89624ZM52.849 96L31.7144 54.1833L53.9477 54.1187L75.4055 95.0305V96H52.849Z" fill="black"/>
</svg>
