<svg width="797" height="487" viewBox="0 0 797 487" fill="none" xmlns="http://www.w3.org/2000/svg">
<path fill-rule="evenodd" clip-rule="evenodd" d="M-0.00390625 66.2518V131.648H13.4893H26.9826V104.191V76.7351H50.9705H74.9585V104.191V131.648H88.4517H101.945V66.2518V0.856079H88.4517H74.9585V25.3171V49.7781H50.9705H26.9826V25.3171V0.856079H13.4893H-0.00390625V66.2518ZM115.938 66.2518V131.648H157.417H198.896V118.684V105.721L171.16 105.455L143.424 105.19L143.141 93.9577L142.858 82.7256H168.878H194.898V69.2471V55.7685H168.911H142.924V41.7908V27.8131H170.91H198.896V14.3346V0.856079H157.417H115.938V66.2518ZM213.889 66.751V132.646H241.375H268.861V196.544V260.442L301.845 260.661C319.986 260.781 337.865 260.894 341.575 260.911L348.321 260.942L348.599 247.213L348.877 233.485H322.22H295.562L296.061 169.602L296.559 105.72L268.467 105.454L240.376 105.19V94.2073V83.2248L266.113 82.9582L291.85 82.6916V69.2301V55.7685H266.363H240.875V41.7908V27.8131H268.861H296.847V14.3346V0.856079H255.368H213.889V66.751ZM394.96 129.643C369.864 138.662 360.136 163.646 374.277 182.761C379.282 189.523 386.931 194.875 404.62 203.984C416.627 210.167 420.749 212.801 422.503 215.412C428.8 224.782 420.704 235.402 407.221 235.46C399.537 235.493 392.417 231.473 386.678 223.86L382.057 217.729L372.014 226.8L361.97 235.87L365.094 240.217C369.729 246.663 377.792 253.905 383.618 256.854C401.938 266.127 426.995 263.276 439.213 250.526L442.148 247.463H458.453H474.758V299.879V352.296H488.251H501.745L501.744 300.129L501.743 247.962H517.486H533.229L533.508 234.733L533.786 221.504H492.778H451.77V218.668C451.77 217.107 451.112 213.647 450.307 210.977C449.503 208.306 448.993 205.974 449.175 205.792C449.357 205.611 451.658 205.944 454.288 206.532C471.928 210.482 488.751 196.842 488.751 178.591C488.751 165.981 483.482 157.071 472.983 151.932C468.056 149.52 466.057 149.131 458.597 149.126L449.933 149.12L443.781 142.879C436.847 135.844 431.771 132.567 423.298 129.656C415.504 126.977 402.395 126.971 394.96 129.643ZM495.748 178.074V206.528H501.245H506.742V195.546V184.563H518.236H529.73V179.072V173.581H518.236H506.742V167.091V160.601H519.236H531.729V155.11V149.619H513.738H495.748V178.074ZM400.959 156.297C399.125 157.2 396.951 158.965 396.128 160.22C392.751 165.368 397.176 169.534 416.548 179.448L431.434 187.067L431.216 177.72L430.998 168.373L425.642 162.879C422.696 159.857 418.838 156.761 417.069 155.998C412.756 154.138 405.055 154.282 400.959 156.297ZM452.269 162.172C445.013 165.941 442.25 171.25 442.979 180.024C443.518 186.523 446.626 191.129 452.17 193.644C460.059 197.222 467.863 195.61 473.457 189.247C480.747 180.953 478.069 166.908 468.356 162.502C463.346 160.229 456.288 160.083 452.269 162.172ZM547.721 286.9V352.296H561.215H574.708V419.189V486.083H588.187H601.665L601.93 455.386L602.194 424.689L613.672 450.425L625.15 476.161L635.515 475.88L645.881 475.599L657.022 450.838L668.161 426.077L668.426 456.079L668.69 486.083H682.669H696.647V418.69V351.297H684.283H671.919L654.129 390.781C644.344 412.496 636.054 430.438 635.706 430.653C635.36 430.868 627.013 413.1 617.158 391.17L599.241 351.297H586.975H574.708V286.401V221.504H561.215H547.721V286.9ZM711.299 373.923C710.937 386.367 710.64 416.693 710.64 441.316V486.083H753.118H795.597V472.604V459.126L773.858 459.119C761.902 459.115 749.082 458.825 745.372 458.475L738.626 457.839V446.501V435.164H765.112H791.599V421.685V408.207H765.112H738.626V393.73V379.253H767.611H796.597V365.275V351.297H754.278H711.958L711.299 373.923Z" fill="black"/>
</svg>
