<svg width="881" height="255" viewBox="0 0 881 255" fill="none" xmlns="http://www.w3.org/2000/svg">
<path fill-rule="evenodd" clip-rule="evenodd" d="M68.2078 1.77162C60.1804 3.033 48.0205 7.25618 40.6862 11.33C31.5672 16.3954 19.7878 26.2077 14.9332 32.7814C2.48367 49.6393 -2.9032 78.7415 2.50764 99.9072C6.58325 115.849 16.583 132.08 28.2087 141.62C49.4715 159.071 74.5294 164.151 101.305 156.437C103.331 155.853 102.973 156.503 99.1868 160.278C93.9807 165.467 91.3741 171.816 91.3741 179.303C91.3741 184.516 94.1544 194.894 95.5516 194.894C96 194.894 96.3675 195.418 96.3675 196.06C96.3675 196.701 97.1235 198.059 98.0473 199.077C99.6432 200.833 99.4994 201.166 95.227 205.626C89.0832 212.041 87.696 214.543 86.4317 221.496C84.0328 234.68 89.8521 246.568 101.359 251.989C104.837 253.629 107.775 254.111 114.344 254.119C123.884 254.131 130.476 252.169 136.401 247.553L139.983 244.763L144.349 249.198L148.714 253.632H161.489C168.516 253.632 174.265 253.267 174.265 252.822C174.265 252.376 170.848 248.455 166.673 244.11C162.497 239.765 157.671 234.734 155.949 232.93C154.076 230.971 153.222 229.369 153.827 228.948C154.383 228.562 157.293 225.109 160.293 221.276C163.294 217.443 166.215 213.859 166.784 213.312C167.355 212.764 168.642 211.335 169.647 210.135C171.447 207.982 171.421 207.91 167.693 204.659C165.615 202.847 162.49 199.908 160.749 198.129C159.009 196.35 157.094 194.894 156.495 194.894C155.897 194.894 153.255 197.694 150.626 201.116C144.224 209.448 140.21 213.809 138.944 213.809C137.716 213.809 131.368 206.78 131.34 205.389C131.33 204.864 132.854 202.848 134.729 200.909C136.602 198.97 139.366 195.161 140.87 192.445C143.193 188.249 143.611 186.304 143.654 179.502C143.697 172.531 143.336 170.825 140.859 166.288C139.294 163.423 137.02 160.429 135.806 159.637C134.592 158.843 132.964 157.562 132.188 156.789C129.483 154.092 120.412 151.798 114.986 152.439L109.897 153.039L115.866 149.459C130.809 140.494 141.997 128.748 148.772 114.912C159.525 92.9532 158.473 66.4264 145.757 38.8274C138.438 22.9433 120.056 9.14874 99.0859 3.80257C89.8182 1.43911 76.0754 0.536132 68.2078 1.77162ZM170.27 78.3463V156.067H188.745H207.221V130.68V105.293H210.543C213.833 105.293 213.986 105.508 227.52 129.207C235.031 142.359 241.176 153.335 241.176 153.598C241.176 153.861 236.229 154.076 230.182 154.076H219.186L219.446 203.605L219.704 253.134H250.663H281.623V243.179V233.223L260.362 232.954L239.102 232.685L239.389 223.994L239.678 215.303L258.903 215.032L278.127 214.762V204.828V194.894H258.618H239.109L239.393 184.689L239.678 174.485L260.832 174.216L281.986 173.948L282.304 164.437L282.621 154.925L266.933 125.381C253.469 100.023 251.47 95.694 252.833 94.8398C270.001 84.0688 275.434 74.5263 275.503 55.0173C275.583 32.3424 264.86 12.1165 248.517 4.11717L242.674 1.25692L206.472 0.941326L170.27 0.625732V78.3463ZM288.114 78.413V156.067H305.091H322.069V78.413V0.759138H305.091H288.114V78.413ZM395.971 1.44309C383.85 3.44517 367.544 11.5889 357.977 20.4195C338.725 38.1883 329.707 60.8055 332.06 85.4208C334.777 113.858 346.532 133.908 368.106 146.908C374.13 150.538 384.987 154.206 394.973 155.986L404.46 157.677L404.72 205.655L404.978 253.632H414.457H423.934V235.214V216.796H428.335H432.734L436.373 224.014C438.374 227.983 442.613 236.16 445.791 242.183L451.571 253.134L462.72 253.416C470.171 253.604 473.868 253.342 473.868 252.628C473.868 252.04 471.983 248.106 469.678 243.884C465.439 236.122 461.624 228.971 456.669 219.502L453.95 214.307L456.17 212.587C457.39 211.641 458.71 210.857 459.105 210.845C460.442 210.804 466.371 204.191 468.129 200.78C472.404 192.486 472.395 175.837 468.111 169.194C462.968 161.219 454.891 155.871 445.905 154.49C441.678 153.841 441.56 153.739 443.908 152.791C459.971 146.304 469.015 140.141 474.024 132.266L476.864 127.801V96.6358V65.4707H440.912H404.959V83.3908V101.311H422.936H440.912V107.181V113.051L435.916 116.245C419.169 126.96 396.624 124.956 383.185 111.557C370.384 98.7961 366.207 74.8887 374.066 59.3679C385.273 37.2345 410.206 29.8455 434.42 41.4816C442.407 45.3195 447.221 49.1116 452.014 55.3408L454.562 58.6511L461.042 51.8564C476.606 35.5381 477.095 34.9069 475.903 32.6848C474.522 30.1163 461.345 18.8415 454.176 14.0987C440.635 5.13862 425.424 0.699404 408.954 0.901503C403.187 0.972188 397.344 1.2161 395.971 1.44309ZM489.515 1.42318C489.148 1.78755 488.848 36.2838 488.848 78.0815V154.076H486.343H483.836L484.096 203.605L484.354 253.134H513.815H543.276V243.179V233.223L523.553 232.953L503.829 232.683V194.375V156.067L513.066 156.083L522.304 156.099L530.294 168.278C534.688 174.978 538.428 181.019 538.606 181.703C538.783 182.388 539.291 182.947 539.733 182.947C540.176 182.947 541.096 184.291 541.778 185.934C542.461 187.576 543.414 188.92 543.897 188.92C544.38 188.92 544.774 189.364 544.774 189.906C544.774 190.449 546.91 193.92 549.518 197.622L554.262 204.352L554.761 228.743L555.261 253.134H565.247H575.234L575.734 228.743L576.233 204.352L580.977 197.622C583.585 193.92 585.72 190.449 585.72 189.906C585.72 189.364 586.115 188.92 586.598 188.92C587.081 188.92 588.034 187.576 588.716 185.934C589.398 184.291 590.3 182.947 590.719 182.947C591.137 182.947 591.738 182.164 592.055 181.205C592.373 180.247 595.803 174.759 599.68 169.009C603.556 163.26 607.024 157.884 607.387 157.062C607.748 156.241 608.527 155.24 609.116 154.837C609.706 154.435 604.528 154.1 597.612 154.091L585.036 154.076L583.154 157.56C582.118 159.477 580.925 161.045 580.5 161.045C580.076 161.045 579.728 161.685 579.728 162.467C579.728 163.249 579.137 164.481 578.415 165.205C577.292 166.328 575.128 169.653 570.229 177.785C565.818 185.104 564.436 186.192 563.351 183.196C562.62 181.182 562.127 180.378 554.64 169.009C551.576 164.355 548.535 159.538 547.885 158.307L546.702 156.067H559.708H572.715L572.976 116.29L573.237 76.5135L602.235 116.041L631.234 155.569L642.396 155.85L653.559 156.132L653.844 191.69L654.13 227.25L657.484 233.912C661.726 242.335 665.981 246.573 674.411 250.766C680.813 253.951 681.579 254.091 692.579 254.11C704.179 254.13 711.812 252.398 715.37 248.941C716.096 248.236 716.995 247.657 717.367 247.654C718.312 247.648 724.772 241.47 726.278 239.134C728.027 236.42 731.183 229.706 732.097 226.752C732.521 225.383 733.128 209.541 733.446 191.547L734.024 158.83L740.389 156.534C748.534 153.595 756.321 148.232 762.633 141.21C768.34 134.863 769.612 132.273 771.859 122.423C775.111 108.172 772.921 96.2376 765.117 85.6697C758.753 77.0531 750.043 70.8676 726.394 58.1712C716.223 52.7106 711.082 47.5725 712.027 43.8132C713.115 39.4935 715.85 36.7636 719.772 36.0827C726.994 34.8283 735.971 39.607 744.162 49.0648C746.76 52.0644 749.183 54.5195 749.547 54.5195C750.413 54.5195 771.678 33.0014 772.817 30.9755C774.685 27.6453 756.675 12.3674 744.357 6.83406C726.876 -1.01794 709.258 -0.988074 694.378 6.91868C687.644 10.4967 678.81 19.4887 675.814 25.8155C671.552 34.8173 672.151 52.4219 677.089 63.2157C682.452 74.9435 691.202 81.998 710.765 90.3687C726.495 97.0977 730.303 99.5349 732.212 104.087C733.494 107.148 733.548 108.598 732.543 113.075C731.498 117.732 730.913 118.593 727.972 119.817C719.546 123.328 709.24 120.281 696.472 110.51L689.879 105.463L679.245 116.097C673.395 121.945 668.611 127.112 668.611 127.58C668.611 128.047 670.151 130.951 672.032 134.034C676.125 140.739 683.457 148.248 689.175 151.588C694.017 154.416 707.719 159.054 711.234 159.054H713.656L713.355 190.165C713.085 217.909 712.857 221.632 711.251 224.565C708.674 229.271 706.605 231.062 701.503 233.004C695.95 235.119 691.142 235.176 685.513 233.197C680.218 231.334 678.017 229.42 675.246 224.263C673.201 220.459 673.091 218.802 672.794 187.226L672.484 154.171L666.802 153.875L661.121 153.578L660.865 77.1466L660.609 0.715333L641.89 0.986126L623.171 1.25692L622.671 43.419L622.172 85.5811L592.711 43.1801L563.25 0.780045L549.269 1.01798L535.287 1.25692L535.031 77.7211L534.776 154.184L530.038 153.882L525.3 153.578L525.045 77.1686L524.789 0.759138H507.484C497.967 0.759138 489.88 1.05781 489.515 1.42318ZM399.689 5.82356C375.952 8.99941 355.365 23.9995 344.472 46.0572C338.217 58.7248 336.568 65.7007 336.708 78.9108C337.16 121.796 362.624 148.889 405.958 152.592C426.276 154.33 452.669 146.811 464.537 135.906C471.997 129.051 471.871 129.696 471.871 98.374V70.4485H440.912H409.953V83.3908V96.3331H427.965H445.977L445.692 105.954L445.406 115.576L439.913 119.266C420.56 132.269 395.863 130.634 380.255 115.318C374.367 109.54 370.978 104.043 367.916 95.2997C366.09 90.084 365.658 86.6931 365.638 77.3906C365.616 66.6474 365.809 65.5025 368.657 59.4704C377.278 41.2168 392.45 31.3687 411.95 31.3687C426.059 31.3687 439.916 36.7059 449.659 45.891L455.088 51.0092L463.167 42.6474L471.247 34.2847L465.339 28.8021C446.57 11.3878 422.107 2.82493 399.689 5.82356ZM65.9078 7.15961C53.0878 9.68933 41.9035 14.9807 30.8412 23.7497C18.5235 33.5141 13.3972 41.6479 7.93546 60.0947C4.49701 71.7099 4.24335 87.8957 7.31928 99.4552C15.8889 131.658 42.2521 153.254 74.847 154.774C88.5808 155.414 96.3156 153.781 108.9 147.585C130.275 137.061 145.095 118.727 149.847 96.9334C154.05 77.6524 147.878 47.6501 136.617 32.6171C129.138 22.6336 112.299 12.0548 97.8655 8.27265C89.2719 6.02068 74.3187 5.50001 65.9078 7.15961ZM175.263 78.3632V151.089H188.745H202.228V125.702V100.315L209.468 100.339L216.708 100.364L231.103 125.726L245.498 151.089H259.815C268.095 151.089 274.132 150.694 274.132 150.152C274.132 149.638 267.616 136.88 259.652 121.805C251.687 106.729 245.171 94.1917 245.171 93.9438C245.171 93.6959 247.755 92.0213 250.913 90.2234C254.071 88.4244 258.726 84.8931 261.256 82.3753C279.122 64.5986 270.777 20.4802 247.382 9.02828L241.675 6.23473L208.469 5.93606L175.263 5.63739V78.3632ZM293.107 78.413V151.089H305.091H317.076V78.413V5.73695H305.091H293.107V78.413ZM493.842 78.413V151.089H506.825H519.808V78.413V5.73695H506.825H493.842V78.413ZM539.781 78.3792V151.089H553.753H567.724L567.984 106.366L568.243 61.6428L601.024 106.366L633.805 151.089H644.716H655.628V78.413V5.73695H641.656H627.684L627.425 53.4015L627.166 101.067L594.132 53.6504L561.1 6.23473L550.44 5.95199L539.781 5.66925V78.3792ZM707.314 6.81614C697.345 9.1587 686.275 17.5493 680.499 27.1415C678.354 30.7037 678.101 32.2796 678.104 42.075C678.108 54.8968 679.663 60.4322 685.372 67.9427C690.624 74.8529 697.459 79.2861 713.231 86.0101C734.074 94.8975 739.819 101.34 737.525 113.258C736.149 120.404 735.508 121.32 730.127 123.817C720.056 128.493 710.729 126.494 696.977 116.711C693.538 114.264 690.365 112.262 689.927 112.262C688.575 112.262 674.603 126.568 674.603 127.952C674.603 129.554 676.953 133.327 681.382 138.837C685.689 144.196 692.126 148.231 701.734 151.595C708.855 154.088 710.32 154.251 722.706 153.924C735.296 153.594 736.395 153.398 742.875 150.34C747.767 148.032 751.786 145.039 756.908 139.888C763.116 133.646 764.348 131.798 766.032 126.2C767.37 121.753 767.979 116.771 767.979 110.271C767.979 102.138 767.614 100.046 765.373 95.3376C760.095 84.251 750.993 76.7206 728.681 64.9829C706.588 53.3597 702.208 45.8531 711.457 35.4634C715.033 31.4464 715.219 31.3727 721.741 31.3727C730.319 31.3727 735.383 33.7879 743.391 41.6957C746.746 45.0099 749.831 47.5705 750.247 47.3863C750.662 47.2031 754.73 43.193 759.286 38.476L767.57 29.9002L760.566 23.4351C752.803 16.271 740.8 9.67739 731.068 7.23228C724.615 5.61051 713.287 5.4124 707.314 6.81614ZM67.305 33.0004C54.5978 36.6661 43.2578 44.9342 36.4677 55.4822C30.996 63.9823 29.2143 70.788 29.9444 80.4041C32.1924 110.018 51.1243 128.191 79.7285 128.191C96.9687 128.191 110.813 120.236 119.605 105.278C127.658 91.5763 127.03 69.3673 118.085 51.5468C115.4 46.2006 113.785 44.3777 108.691 40.95C99.3606 34.67 92.5056 32.429 81.3873 32.0218C75.4312 31.8038 70.1901 32.1681 67.305 33.0004ZM202.894 32.2856C202.527 32.65 202.228 41.9913 202.228 53.0441V73.1395L210.488 73.7209C220.085 74.3959 231.926 73.1405 236.059 71.01C242.706 67.5833 246.154 60.5944 246.162 50.5373C246.169 40.1555 241.163 34.6819 229.865 32.7207C222.967 31.523 203.965 31.2164 202.894 32.2856ZM68.023 37.7064C56.5192 40.3984 43.839 50.83 38.2723 62.1794C35.2404 68.3608 34.9527 69.7407 34.9907 77.9152C35.1155 105.069 52.4676 123.213 78.3104 123.213C89.4317 123.213 95.4477 121.683 102.327 117.104C113.961 109.358 120.336 96.7861 120.336 81.5829C120.336 67.9526 115.231 52.1381 109.197 47.0757C99.023 38.5427 81.4942 34.5545 68.023 37.7064ZM207.221 52.4836V68.3668L210.846 69.0448C216.003 70.0095 228.318 68.7899 233.24 66.8267C238.596 64.6902 241.123 59.6138 241.154 50.9205C241.193 40.0381 235.4 36.5994 217.026 36.5994H207.221V52.4836ZM766.481 153.652C757.3 156.449 750.825 161.604 746.918 169.225C742.821 177.217 744.063 188.783 749.785 195.912C752.653 199.485 760.722 204.861 770.726 209.865C776.631 212.818 781.461 215.586 781.461 216.015C781.461 216.445 782.039 216.796 782.744 216.796C784.263 216.796 787.454 221.856 787.454 224.263C787.454 227.354 784.223 231.45 780.489 233.092C775.823 235.144 771.763 235.151 766.877 233.115C763.086 231.536 762.286 230.819 757.63 224.816C756.333 223.143 754.97 221.774 754.601 221.774C754.232 221.774 750.902 224.621 747.199 228.101C742.018 232.969 740.618 234.862 741.123 236.314C742.482 240.222 753.98 250.093 759.556 252.139C767.426 255.026 782.117 254.83 788.739 251.748C794.861 248.9 801.792 241.986 804.529 235.996C807.361 229.797 807.486 217.271 804.768 211.947C801.336 205.225 793.333 198.654 781.027 192.459C764.216 183.995 761.529 180.625 767.557 175.569C769.7 173.771 771.794 172.991 774.483 172.991C780.913 172.991 783.529 174.521 789.789 181.941L792.625 185.302L796.203 181.386C798.171 179.234 801.368 175.792 803.308 173.738L806.834 170.005L802.886 165.946C796.614 159.498 790.422 155.517 783.892 153.736C776.778 151.796 772.634 151.776 766.481 153.652ZM333.608 160.298C332.072 163.721 329.943 168.536 328.876 171C327.81 173.464 326.319 176.824 325.563 178.467C324.806 180.11 323.238 183.694 322.075 186.432C320.914 189.169 319.562 192.305 319.073 193.4C318.584 194.496 317.235 197.632 316.077 200.369C313.741 205.89 313.445 206.557 309.252 215.801C307.637 219.36 304.437 226.752 302.14 232.227C299.844 237.703 297.322 243.595 296.535 245.32C295.749 247.045 295.105 248.95 295.105 249.551C295.105 250.153 294.655 250.645 294.106 250.645C293.557 250.645 293.107 251.317 293.107 252.139C293.107 253.373 294.967 253.632 303.849 253.632H314.591L315.752 250.894C316.391 249.389 317.926 245.692 319.162 242.681C320.399 239.669 321.839 236.646 322.362 235.961C323.068 235.037 328.556 234.716 343.67 234.716H364.029L366.885 240.593C368.456 243.826 370.061 247.741 370.452 249.294C370.843 250.847 371.688 252.452 372.332 252.86C372.975 253.268 377.939 253.608 383.363 253.617L393.225 253.632L392.67 250.862C392.364 249.339 390.703 244.971 388.98 241.156C383.105 228.153 382.694 227.249 381.95 225.692C381.539 224.834 377.963 216.575 374 207.338C370.038 198.102 366.41 189.842 365.939 188.985C365.468 188.128 364.149 185.187 363.009 182.449C361.868 179.711 360.28 176.283 359.479 174.829C358.677 173.376 358.021 171.686 358.021 171.075C358.021 170.463 356.712 167.172 355.112 163.762C353.513 160.351 351.954 156.777 351.649 155.818C351.187 154.366 349.866 154.076 343.747 154.076H336.401L333.608 160.298ZM818.413 203.868V253.661L849.122 253.397L879.831 253.134L880.116 242.93L880.401 232.725H858.894H837.388V224.369C837.388 217.668 837.7 215.894 838.967 215.409C839.836 215.077 848.824 214.805 858.941 214.805H877.335V204.849V194.894H857.326H837.318L837.602 184.689L837.887 174.485L859.109 174.216L880.331 173.947V164.011V154.076H849.372H818.413V203.868ZM113.345 173.966C111.239 175.293 111.407 182.862 113.618 186.226C115.989 189.832 118.699 189.621 121.783 185.591C124.728 181.741 124.99 178.902 122.718 175.445C121.01 172.847 116.3 172.103 113.345 173.966ZM424.6 174.651C424.234 175.015 423.934 179.943 423.934 185.602V195.889H434.864C444.978 195.889 446.003 195.71 448.596 193.487C451.056 191.377 451.398 190.392 451.398 185.413C451.398 180.161 451.142 179.529 447.941 176.864C444.654 174.129 444.006 173.987 434.874 173.987C429.59 173.987 424.966 174.286 424.6 174.651ZM341.337 191.658C340.68 193.164 339.722 195.516 339.206 196.885C338.69 198.254 337.161 201.838 335.807 204.849C331.383 214.69 330.621 213.809 343.572 213.809C349.871 213.809 355.025 213.642 355.025 213.438C355.025 212.809 351.037 203.675 347.962 197.26C346.354 193.908 345.039 190.66 345.039 190.042C345.039 187.857 342.513 188.959 341.337 191.658ZM109.691 220.032C106.027 223.922 105.155 226.107 105.973 229.354C106.645 232.024 110.932 234.716 114.511 234.716C117.873 234.716 125.329 231.64 125.329 230.253C125.329 229.137 114.193 216.796 113.187 216.796C112.94 216.796 111.367 218.253 109.691 220.032Z" fill="black"/>
</svg>
