<svg width="277" height="73" viewBox="0 0 277 73" fill="none" xmlns="http://www.w3.org/2000/svg">
<rect width="277" height="73" fill="#B5344A"/>
<path d="M80.8984 47.0117C80.582 47.3984 80.1484 47.791 79.5977 48.1895C79.0469 48.5879 78.3965 48.9453 77.6465 49.2617C76.8848 49.5898 76.0352 49.8535 75.0977 50.0527C74.1602 50.252 73.1523 50.3516 72.0742 50.3516C71.1367 50.3516 70.252 50.2402 69.4199 50.0176C68.5996 49.8066 67.8438 49.4961 67.1523 49.0859C66.4727 48.6641 65.8516 48.1484 65.2891 47.5391C64.7383 46.9297 64.2695 46.2324 63.8828 45.4473C63.4375 44.5801 63.0977 43.6016 62.8633 42.5117C62.6406 41.4219 62.5293 40.2383 62.5293 38.9609V35.4805C62.5293 34.2617 62.6406 33.1309 62.8633 32.0879C63.0859 31.0332 63.4023 30.0781 63.8125 29.2227C64.1992 28.4609 64.6445 27.7754 65.1484 27.166C65.6641 26.5566 66.2266 26.0293 66.8359 25.584C67.5508 25.0801 68.3301 24.6992 69.1738 24.4414C70.0176 24.1836 70.9082 24.0547 71.8457 24.0547C73.2871 24.0547 74.541 24.2363 75.6074 24.5996C76.6855 24.9629 77.5938 25.4844 78.332 26.1641C79.0703 26.8555 79.6445 27.6934 80.0547 28.6777C80.4766 29.6621 80.752 30.7695 80.8809 32H76.0645C75.9824 31.3789 75.8535 30.8281 75.6777 30.3477C75.5137 29.8672 75.2852 29.4629 74.9922 29.1348C74.6641 28.7715 74.248 28.502 73.7441 28.3262C73.252 28.1387 72.6602 28.0449 71.9688 28.0449C71.5938 28.0449 71.2305 28.1035 70.8789 28.2207C70.5273 28.3379 70.1992 28.5078 69.8945 28.7305C69.4961 29.0352 69.1328 29.4336 68.8047 29.9258C68.4883 30.418 68.2246 30.998 68.0137 31.666C67.8496 32.1816 67.7207 32.7559 67.627 33.3887C67.5449 34.0215 67.5039 34.707 67.5039 35.4453V38.9609C67.5039 39.8867 67.5625 40.7305 67.6797 41.4922C67.8086 42.2539 67.9844 42.9277 68.207 43.5137C68.3477 43.8535 68.5059 44.1699 68.6816 44.4629C68.8691 44.7441 69.0742 44.9961 69.2969 45.2188C69.6719 45.5938 70.1055 45.8809 70.5977 46.0801C71.1016 46.2676 71.6699 46.3672 72.3027 46.3789C72.6895 46.3789 73.0703 46.3496 73.4453 46.291C73.8203 46.2324 74.1719 46.1504 74.5 46.0449C74.8281 45.9395 75.1152 45.8223 75.3613 45.6934C75.6191 45.5527 75.8125 45.4062 75.9414 45.2539L75.959 40.6133H71.7227V36.9219H80.8809L80.8984 47.0117ZM102.783 39.084C102.783 40.1855 102.684 41.2344 102.484 42.2305C102.285 43.2148 101.998 44.1289 101.623 44.9727C101.225 45.8164 100.732 46.5898 100.146 47.293C99.5605 47.9961 98.8926 48.582 98.1426 49.0508C97.4629 49.4609 96.7129 49.7773 95.8926 50C95.084 50.2344 94.2109 50.3516 93.2734 50.3516C92.2773 50.3516 91.3574 50.2227 90.5137 49.9648C89.6699 49.707 88.9023 49.3438 88.2109 48.875C87.5312 48.3828 86.9219 47.791 86.3828 47.0996C85.8438 46.3965 85.3926 45.6055 85.0293 44.7266C84.7012 43.918 84.4492 43.0391 84.2734 42.0898C84.1094 41.1406 84.0273 40.1387 84.0273 39.084V35.3574C84.0273 34.2324 84.1211 33.166 84.3086 32.1582C84.5078 31.1504 84.7949 30.2188 85.1699 29.3633C85.5332 28.5547 85.9727 27.8223 86.4883 27.166C87.0156 26.5098 87.6191 25.9473 88.2988 25.4785C88.9668 25.0215 89.7168 24.6699 90.5488 24.4238C91.3809 24.1777 92.2832 24.0547 93.2559 24.0547C94.2402 24.0547 95.1602 24.1836 96.0156 24.4414C96.8828 24.6875 97.6621 25.0449 98.3535 25.5137C99.0449 25.959 99.6484 26.498 100.164 27.1309C100.691 27.7637 101.143 28.4609 101.518 29.2227C101.928 30.0898 102.238 31.0391 102.449 32.0703C102.672 33.1016 102.783 34.1973 102.783 35.3574V39.084ZM97.7734 35.3223C97.7734 34.666 97.7383 34.0449 97.668 33.459C97.6094 32.8613 97.5098 32.3105 97.3691 31.8066C97.1934 31.1738 96.959 30.6113 96.666 30.1191C96.373 29.6152 96.0273 29.2051 95.6289 28.8887C95.3125 28.6543 94.9551 28.4727 94.5566 28.3438C94.1699 28.2148 93.7363 28.1504 93.2559 28.1504C92.7988 28.1504 92.3828 28.209 92.0078 28.3262C91.6445 28.4434 91.3164 28.6133 91.0234 28.8359C90.625 29.1641 90.2852 29.5742 90.0039 30.0664C89.7344 30.5586 89.5234 31.1328 89.3711 31.7891C89.2539 32.293 89.166 32.8438 89.1074 33.4414C89.0605 34.0391 89.0371 34.666 89.0371 35.3223V39.084C89.0371 39.7051 89.0605 40.3027 89.1074 40.877C89.1543 41.4512 89.2363 41.9844 89.3535 42.4766C89.4824 43.0977 89.6699 43.666 89.916 44.1816C90.1738 44.6855 90.4727 45.0957 90.8125 45.4121C91.1289 45.6934 91.4863 45.9102 91.8848 46.0625C92.2949 46.2148 92.7578 46.291 93.2734 46.291C93.7656 46.291 94.2168 46.2207 94.627 46.0801C95.0371 45.9395 95.4004 45.7344 95.7168 45.4648C96.1152 45.1367 96.4492 44.7266 96.7188 44.2344C97 43.7305 97.2227 43.1621 97.3867 42.5293C97.5156 42.0371 97.6094 41.498 97.668 40.9121C97.7383 40.3262 97.7734 39.7168 97.7734 39.084V35.3223ZM128.131 50V24.4062H136.727C138.121 24.4062 139.387 24.5469 140.523 24.8281C141.672 25.1094 142.65 25.5371 143.459 26.1113C144.268 26.6855 144.889 27.4121 145.322 28.291C145.768 29.1699 145.99 30.207 145.99 31.4023C145.979 32.1758 145.838 32.9082 145.568 33.5996C145.311 34.2793 144.924 34.877 144.408 35.3926C144.127 35.6738 143.805 35.9316 143.441 36.166C143.09 36.4004 142.697 36.5996 142.264 36.7637V36.7812C143.107 37.0156 143.775 37.3145 144.268 37.6777C144.771 38.041 145.193 38.4629 145.533 38.9434C145.885 39.459 146.143 40.0215 146.307 40.6309C146.482 41.2285 146.57 41.8496 146.57 42.4941C146.57 43.7246 146.359 44.8086 145.938 45.7461C145.516 46.6836 144.912 47.4688 144.127 48.1016C143.342 48.7344 142.387 49.209 141.262 49.5254C140.137 49.8418 138.871 50 137.465 50H128.131ZM133.088 38.7148V46.0098H137.482C138.127 46.0098 138.701 45.9277 139.205 45.7637C139.721 45.5996 140.148 45.377 140.488 45.0957C140.863 44.7793 141.145 44.3984 141.332 43.9531C141.531 43.5078 141.631 43.0098 141.631 42.459C141.631 41.8848 141.555 41.3691 141.402 40.9121C141.262 40.4551 141.033 40.0684 140.717 39.752C140.4 39.4238 139.99 39.1719 139.486 38.9961C138.982 38.8203 138.385 38.7266 137.693 38.7148H133.088ZM133.088 35.1465H136.762C137.512 35.1348 138.174 35.0469 138.748 34.8828C139.322 34.707 139.785 34.4492 140.137 34.1094C140.43 33.8398 140.652 33.5117 140.805 33.125C140.969 32.7383 141.051 32.2988 141.051 31.8066C141.051 31.291 140.98 30.8398 140.84 30.4531C140.711 30.0664 140.512 29.7441 140.242 29.4863C139.891 29.123 139.416 28.8594 138.818 28.6953C138.232 28.5312 137.541 28.4434 136.744 28.4316H133.088V35.1465ZM162.373 44.6562H154.691L153.18 50H147.977L156.361 24.4062H160.844L169.07 50H163.867L162.373 44.6562ZM155.904 40.4551H161.213L158.594 31.0332L155.904 40.4551ZM189.18 41.9844C189.098 43.2734 188.816 44.4336 188.336 45.4648C187.867 46.4961 187.234 47.375 186.438 48.1016C185.641 48.8281 184.691 49.3906 183.59 49.7891C182.488 50.1758 181.27 50.3691 179.934 50.3691C178.879 50.3691 177.9 50.2344 176.998 49.9648C176.107 49.6836 175.305 49.2852 174.59 48.7695C173.934 48.2891 173.348 47.709 172.832 47.0293C172.328 46.3496 171.9 45.5996 171.549 44.7793C171.209 43.959 170.945 43.0566 170.758 42.0723C170.582 41.0879 170.494 40.0449 170.494 38.9434V35.498C170.494 34.4668 170.576 33.4883 170.74 32.5625C170.904 31.625 171.15 30.7578 171.479 29.9609C171.854 28.9883 172.346 28.1211 172.955 27.3594C173.564 26.5977 174.256 25.9531 175.029 25.4258C175.721 24.9805 176.477 24.6406 177.297 24.4062C178.129 24.1602 179.02 24.0371 179.969 24.0371C181.375 24.0371 182.623 24.2363 183.713 24.6348C184.814 25.0332 185.752 25.6016 186.525 26.3398C187.299 27.0781 187.908 27.9805 188.354 29.0469C188.799 30.1133 189.08 31.3145 189.197 32.6504H184.275C184.229 31.8887 184.111 31.2207 183.924 30.6465C183.748 30.0723 183.49 29.5918 183.15 29.2051C182.799 28.8301 182.359 28.5488 181.832 28.3613C181.316 28.1621 180.695 28.0625 179.969 28.0625C179.582 28.0625 179.219 28.1035 178.879 28.1855C178.551 28.2676 178.246 28.3906 177.965 28.5547C177.484 28.8359 177.074 29.2402 176.734 29.7676C176.406 30.2832 176.143 30.8867 175.943 31.5781C175.791 32.1172 175.68 32.7148 175.609 33.3711C175.539 34.0156 175.504 34.7129 175.504 35.4629V38.9434C175.504 39.9629 175.557 40.877 175.662 41.6855C175.779 42.4824 175.955 43.1797 176.189 43.7773C176.354 44.1875 176.547 44.5508 176.77 44.8672C177.004 45.1836 177.268 45.4473 177.561 45.6582C177.877 45.8926 178.229 46.0684 178.615 46.1855C179.014 46.291 179.453 46.3438 179.934 46.3438C180.578 46.3438 181.158 46.2617 181.674 46.0977C182.189 45.9336 182.629 45.6758 182.992 45.3242C183.355 44.9727 183.643 44.5215 183.854 43.9707C184.064 43.4199 184.193 42.7578 184.24 41.9844H189.18ZM200.658 39.4883L197.951 42.459V50H192.994V24.4062H197.951V36.1309L200.271 33.002L206.494 24.4062H212.541L203.928 35.7266L212.857 50H206.986L200.658 39.4883Z" fill="black"/>
</svg>
