<svg width="500" height="158" viewBox="0 0 500 158" fill="none" xmlns="http://www.w3.org/2000/svg">
<path d="M102.5 29.5187L80.5 52.0187C79.1474 44.7026 52.0286 19.9793 41.5 40.0187C30.9714 60.0582 116.274 64.1119 102.5 116.519C94.3959 140.387 84.5971 148.86 57 154.519C30.4186 152.75 19.2597 145.428 4 124.519L26.5 103.019C41.8386 125.927 55.4606 128.188 70 116.519C85.4725 87.1939 5.90235 85.5061 10.5 44.0187C15.0976 2.53143 53.5 3.01875 53.5 3.01875C74.0003 2.64248 84.8057 7.80886 102.5 29.5187Z" stroke="black" stroke-width="5"/>
<path d="M147.5 6.01855H117.5V151.019H148V89.5186H202V151.019H230V6.01855H201V60.5186H147.5V6.01855Z" stroke="black" stroke-width="5"/>
<path d="M275 6.01855H245.5L246 151.019H276L275 6.01855Z" stroke="black" stroke-width="5"/>
<path d="M383 6.01855H292V151.019H322V98.0186H377.5V66.0186H322V37.0186L383 35.5186V6.01855Z" stroke="black" stroke-width="5"/>
<path d="M497.5 6.01855H399V35.5186H433.5V151.019H465.5V35.5186H497.5V6.01855Z" stroke="black" stroke-width="5"/>
</svg>
